<?xml version="1.0" encoding="UTF-8"?>
<svg version="1.1" xmlns="http://www.w3.org/2000/svg" width="100" height="100">
<path d="M0 0 C33 0 66 0 100 0 C100 33 100 66 100 100 C67 100 34 100 0 100 C0 67 0 34 0 0 Z " fill="#C2BFB3" transform="translate(0,0)"/>
<path d="M0 0 C4.6338195 2.47855462 6.98271403 5.39614781 8.66796875 10.27734375 C9.41066184 12.98660447 10.08694934 15.69352057 10.6875 18.4375 C11.6775 18.4375 12.6675 18.4375 13.6875 18.4375 C17.55496059 24.84298161 18.74965149 29.97057501 17.6875 37.4375 C16.04994466 42.84310361 13.48282883 47.2355288 9.6875 51.4375 C8.6975 50.9425 8.6975 50.9425 7.6875 50.4375 C8.0175 48.7875 8.3475 47.1375 8.6875 45.4375 C8.28917969 46.11296875 7.89085937 46.7884375 7.48046875 47.484375 C6.95066406 48.37640625 6.42085937 49.2684375 5.875 50.1875 C5.09189453 51.51007813 5.09189453 51.51007813 4.29296875 52.859375 C2.8537989 55.17045067 1.45438761 57.36564275 -0.3125 59.4375 C-0.9725 59.4375 -1.6325 59.4375 -2.3125 59.4375 C-2.95117231 51.9721303 -2.09855119 47.24943842 1.5703125 40.73046875 C3.64644961 36.46930621 3.13990604 32.79471812 1.6875 28.4375 C-2.54446371 35.8778827 -3.07202547 42.98482018 -3.3125 51.4375 C-7.21978738 46.40290002 -10.061129 41.18161163 -9.8828125 34.609375 C-8.87564149 30.77384705 -6.25481328 27.95080824 -3.87109375 24.84765625 C-1.65709838 21.42400928 -1.71097099 19.39040495 -2.3125 15.4375 C-2.704375 16.613125 -3.09625 17.78875 -3.5 19 C-5.13604368 23.41496956 -7.50883352 26.67468446 -10.3125 30.4375 C-11.57822574 34.23467722 -12.04009408 37.51249707 -11.3125 41.4375 C-9.94086797 43.98662537 -8.37436095 46.34575096 -6.78125 48.76171875 C-4.41262548 53.07689906 -3.84660103 57.59375614 -3.3125 62.4375 C-1.72779658 61.58587789 -0.14484923 60.73098835 1.4375 59.875 C2.31921875 59.39933594 3.2009375 58.92367187 4.109375 58.43359375 C4.6247583 58.13171143 5.1401416 57.8298291 5.67114258 57.51879883 C7.6875 56.4375 7.6875 56.4375 10.7097168 55.19018555 C14.21256083 53.56353983 16.86095566 52.080978 19.6875 49.4375 C21.17253174 45.05257662 21.30165038 41.02905587 21.0871582 36.42163086 C20.99976343 34.36944498 21.0253035 32.34037171 21.06445312 30.28710938 C21.10913578 23.18872212 21.10913578 23.18872212 17.66381836 17.33984375 C15.29404425 15.77084762 15.29404425 15.77084762 12.81152344 14.70092773 C10.05923026 13.06378783 9.58956422 11.55946378 8.625 8.5625 C8.2798251 7.19533668 7.95515612 5.8219282 7.6875 4.4375 C25.78450958 11.45140386 25.78450958 11.45140386 28.60449219 17.35827637 C30.08478668 22.7771218 29.92417151 28.24489411 29.6875 33.8125 C29.67277649 34.6509848 29.65805298 35.4894696 29.6428833 36.35336304 C29.2856079 51.85340371 29.2856079 51.85340371 24.3359375 57.02734375 C20.8531137 59.61006544 17.08149881 61.17226438 12.99707031 62.57080078 C9.3386698 63.94366778 6.21401815 66.0884387 2.9375 68.1875 C-2.59200163 71.51568345 -2.59200163 71.51568345 -5.72436523 71.17578125 C-8.42381059 70.40574797 -10.32553671 69.41302929 -12.67578125 67.890625 C-13.48080078 67.375 -14.28582031 66.859375 -15.11523438 66.328125 C-15.94345703 65.78671875 -16.77167969 65.2453125 -17.625 64.6875 C-19.26684662 63.63008339 -20.90877294 62.57279051 -22.55078125 61.515625 C-23.34371582 60.99572998 -24.13665039 60.47583496 -24.95361328 59.94018555 C-26.50445246 58.95225188 -28.081395 58.00395725 -29.68310547 57.10083008 C-35.13319423 54.00141665 -35.13319423 54.00141665 -36.09375 50.98046875 C-36.0009375 50.20316406 -35.908125 49.42585938 -35.8125 48.625 C-35.7403125 47.83480469 -35.668125 47.04460938 -35.59375 46.23046875 C-35.45453125 45.34294922 -35.45453125 45.34294922 -35.3125 44.4375 C-34.3225 44.4375 -33.3325 44.4375 -32.3125 44.4375 C-32.3125 43.7775 -32.3125 43.1175 -32.3125 42.4375 C-30.8275 41.9425 -30.8275 41.9425 -29.3125 41.4375 C-29.29703125 42.65824219 -29.2815625 43.87898438 -29.265625 45.13671875 C-28.94293253 47.69738505 -28.71504163 49.02141935 -26.90429688 50.89306641 C-25.00740049 52.14957965 -23.08978 53.21727073 -21.0625 54.25 C-20.05896484 54.80204102 -20.05896484 54.80204102 -19.03515625 55.36523438 C-17.73446476 56.07946477 -16.42795774 56.78323006 -15.11523438 57.47509766 C-12.79633641 58.71305754 -10.55183232 60.06178615 -8.3125 61.4375 C-8.86679687 60.56867188 -9.42109375 59.69984375 -9.9921875 58.8046875 C-10.72428941 57.64083319 -11.45604169 56.4767589 -12.1875 55.3125 C-12.55230469 54.74273437 -12.91710937 54.17296875 -13.29296875 53.5859375 C-18.35821053 45.48155066 -19.53522188 37.88967175 -18.3125 28.4375 C-16.78402641 24.99715644 -14.70307712 22.32423463 -12.3125 19.4375 C-8.41415932 14.06645284 -6.44379841 9.15194136 -4.98828125 2.66015625 C-4.65376953 1.55994141 -4.65376953 1.55994141 -4.3125 0.4375 C-2.3125 -0.5625 -2.3125 -0.5625 0 0 Z " fill="#96293B" transform="translate(54.3125,15.5625)"/>
<path d="M0 0 C-0.33 0.66 -0.66 1.32 -1 2 C-1.66 2 -2.32 2 -3 2 C-3.08636719 2.70125 -3.17273438 3.4025 -3.26171875 4.125 C-4.40886595 11.87087467 -6.68008122 17.00047432 -11.66015625 23 C-16.12902418 28.74719658 -16.79162518 33.39624612 -16.45703125 40.6328125 C-15.47505919 47.8675126 -11.96017194 53.3967316 -7.953125 59.37109375 C-7 61 -7 61 -7 63 C-11.60931282 61.36530185 -15.59586066 58.97080462 -19.75 56.4375 C-20.43449219 56.02564453 -21.11898438 55.61378906 -21.82421875 55.18945312 C-26.85226739 52.14773261 -26.85226739 52.14773261 -28 51 C-28.36760731 48.67182036 -28.70241581 46.3381615 -29 44 C-32.67230705 47.07999946 -33.56802365 49.2482602 -34 54 C-34.33 54 -34.66 54 -35 54 C-38.16939096 21.98427528 -38.16939096 21.98427528 -33.19824219 14.16650391 C-28.66842772 10.06081857 -23.42925582 7.92686408 -17.68066406 6.02783203 C-13.86953973 4.56655394 -10.65554314 2.37536319 -7.30224609 0.07202148 C-4.43993946 -1.26078747 -2.96862237 -0.8971472 0 0 Z " fill="#E17520" transform="translate(53,14)"/>
<path d="M0 0 C4.6338195 2.47855462 6.98271403 5.39614781 8.66796875 10.27734375 C9.41066184 12.98660447 10.08694934 15.69352057 10.6875 18.4375 C11.6775 18.4375 12.6675 18.4375 13.6875 18.4375 C17.55496059 24.84298161 18.74965149 29.97057501 17.6875 37.4375 C16.04994466 42.84310361 13.48282883 47.2355288 9.6875 51.4375 C9.0275 51.1075 8.3675 50.7775 7.6875 50.4375 C8.0175 48.7875 8.3475 47.1375 8.6875 45.4375 C8.28917969 46.11296875 7.89085938 46.7884375 7.48046875 47.484375 C6.95066406 48.37640625 6.42085937 49.2684375 5.875 50.1875 C5.35292969 51.06921875 4.83085938 51.9509375 4.29296875 52.859375 C2.8537989 55.17045067 1.45438761 57.36564275 -0.3125 59.4375 C-0.9725 59.4375 -1.6325 59.4375 -2.3125 59.4375 C-2.95117231 51.9721303 -2.09855119 47.24943842 1.5703125 40.73046875 C3.64644961 36.46930621 3.13990604 32.79471812 1.6875 28.4375 C-2.54446371 35.8778827 -3.07202547 42.98482018 -3.3125 51.4375 C-7.21978738 46.40290002 -10.061129 41.18161163 -9.8828125 34.609375 C-8.87564149 30.77384705 -6.25481328 27.95080824 -3.87109375 24.84765625 C-1.65709838 21.42400928 -1.71097099 19.39040495 -2.3125 15.4375 C-2.704375 16.613125 -3.09625 17.78875 -3.5 19 C-5.17828385 23.44903549 -7.25611005 26.78474128 -10.3125 30.4375 C-13.30998117 31.58307201 -14.15966802 31.48844399 -17.3125 30.4375 C-17.6425 31.0975 -17.9725 31.7575 -18.3125 32.4375 C-18.04925321 27.17256418 -16.077747 24.59612843 -12.9375 20.640625 C-9.21331371 15.59148782 -6.53544677 9.98693602 -5.125 3.875 C-4.856875 2.740625 -4.58875 1.60625 -4.3125 0.4375 C-2.3125 -0.5625 -2.3125 -0.5625 0 0 Z " fill="#E06918" transform="translate(54.3125,15.5625)"/>
<path d="M0 0 C0.66 0.33 1.32 0.66 2 1 C2 1.99 2 2.98 2 4 C2.721875 4.2475 3.44375 4.495 4.1875 4.75 C7.39402719 6.17512319 9.49190402 7.53180087 12 10 C13.01037306 14.21598101 12.97119138 18.40694861 12.98144531 22.73461914 C12.99989946 24.80124119 13.10335035 26.85236585 13.2109375 28.91601562 C13.30659213 38.65843926 13.30659213 38.65843926 9.67382812 42.38842773 C6.85020823 44.19036815 4.04205744 45.60563855 1 47 C-0.84790507 48.1221818 -2.68374086 49.26479037 -4.5 50.4375 C-8.62140992 53 -8.62140992 53 -12 53 C-12.23074219 52.154375 -12.46148437 51.30875 -12.69921875 50.4375 C-14.88633623 42.68453156 -14.88633623 42.68453156 -18.75 35.6875 C-20.86914664 32.54168605 -21.75033239 29.99185923 -21.49609375 26.078125 C-20.27911 20.98020882 -17.1204061 16.68060915 -14.25 12.375 C-12.63155795 9.29996011 -12.33653405 6.43264731 -12 3 C-9.40914544 6.88628185 -9.33795702 8.36569912 -10 13 C-11.56640625 15.3984375 -11.56640625 15.3984375 -13.5 17.9375 C-16.64847765 22.09331997 -16.64847765 22.09331997 -17.6875 27.0625 C-16.85636973 31.82260971 -15.21375744 35.73061065 -13 40 C-12.98582031 39.26136719 -12.97164062 38.52273437 -12.95703125 37.76171875 C-12.58582101 29.86597668 -10.71028855 23.95507964 -7 17 C-6.67 17 -6.34 17 -6 17 C-4.46328164 23.33896322 -4.2589581 27.97000018 -7.4375 33.75 C-10.35117054 39.09996002 -10.8739968 43.97475597 -11 50 C-10.34 50 -9.68 50 -9 50 C-8.731875 49.44183594 -8.46375 48.88367188 -8.1875 48.30859375 C-6.45386159 44.93826381 -4.42966277 41.75747952 -2.4375 38.53515625 C-1.04403163 36.07765361 0.01600895 33.64447595 1 31 C2.46726798 34.81489674 1.43336419 37.29011622 0 41 C4.956657 36.92846032 7.49816653 31.5329076 8.390625 25.25 C8.64389954 18.73722601 7.3542586 14.55549081 4 9 C3.34 9.66 2.68 10.32 2 11 C0.57741188 7.17679443 -0.24042276 4.08718695 0 0 Z " fill="#C7BEB0" transform="translate(63,25)"/>
<path d="M0 0 C0.33 0 0.66 0 1 0 C1.91316812 9.8622157 -2.78676132 16.88644207 -8.765625 24.40625 C-12.57425224 29.32371808 -11.45928485 36.09946542 -11 42 C-9.45773183 47.67454105 -6.20412375 52.52397212 -2.953125 57.37109375 C-2 59 -2 59 -2 61 C-6.60931282 59.36530185 -10.59586066 56.97080462 -14.75 54.4375 C-15.43449219 54.02564453 -16.11898438 53.61378906 -16.82421875 53.18945312 C-21.85226739 50.14773261 -21.85226739 50.14773261 -23 49 C-23.4593236 44.69600873 -23.61347834 40.38854729 -23.73461914 36.06445312 C-23.78619435 34.61452695 -23.86109804 33.16522766 -23.96020508 31.71777344 C-24.2796251 26.96619661 -24.34263408 22.62658284 -23 18 C-19.38783825 14.61985938 -15.60874059 12.72735684 -11 11 C-11 14.81133869 -12.2094518 16.01854683 -14.4375 19.0625 C-19.49873105 26.02552696 -20.01344789 31.33455565 -19 40 C-17.2242661 44.0432095 -15.05231379 47.9738431 -11 50 C-11.495 48.96875 -11.99 47.9375 -12.5 46.875 C-15.02579098 40.02622061 -15.35032323 32.1490701 -13.0859375 25.19140625 C-10.67848364 20.21341295 -7.50082062 15.78404523 -4.359375 11.25 C-2.22609246 7.71904959 -1.06853781 3.96483768 0 0 Z " fill="#CDC5B7" transform="translate(48,16)"/>
<path d="M0 0 C0.721875 0.103125 1.44375 0.20625 2.1875 0.3125 C4.2603727 6.53111809 4.0168047 13.15900744 1.4375 19.1875 C-0.26571559 22.57568243 -2.26148783 25.4881651 -4.8125 28.3125 C-5.4725 27.9825 -6.1325 27.6525 -6.8125 27.3125 C-6.4825 25.6625 -6.1525 24.0125 -5.8125 22.3125 C-6.21082031 22.98796875 -6.60914063 23.6634375 -7.01953125 24.359375 C-7.54933594 25.25140625 -8.07914063 26.1434375 -8.625 27.0625 C-9.14707031 27.94421875 -9.66914062 28.8259375 -10.20703125 29.734375 C-11.6462011 32.04545067 -13.04561239 34.24064275 -14.8125 36.3125 C-15.4725 36.3125 -16.1325 36.3125 -16.8125 36.3125 C-17.43677684 29.01539736 -16.75705138 23.99332377 -13.1015625 17.6015625 C-11.33325501 14.46147707 -10.11182445 11.2334983 -9 7.8125 C-7.03226283 3.66989544 -4.72094244 0.52454916 0 0 Z " fill="#CA4026" transform="translate(68.8125,38.6875)"/>
<path d="M0 0 C1.67253909 0.65179385 3.33734946 1.32337943 5 2 C5.89285202 2.34730667 5.89285202 2.34730667 6.80374146 2.70162964 C11.690219 4.70459551 16.50453774 6.9341826 20 11 C22.38668241 16.99774113 21.41142041 23.77396368 20.9375 30.0625 C20.86215986 31.80374843 20.79373555 33.54531063 20.73242188 35.28710938 C20.56799375 39.53255334 20.30999255 43.76279925 20 48 C19.5875 47.505 19.175 47.01 18.75 46.5 C16.87797662 44.56613908 16.87797662 44.56613908 13 45 C13.01683838 44.12263184 13.03367676 43.24526367 13.05102539 42.34130859 C13.0924187 39.06321873 13.09322643 35.79019066 13.06713867 32.51220703 C13.06406942 31.09808791 13.07684912 29.68383732 13.10620117 28.27001953 C13.55851656 19.94401008 13.55851656 19.94401008 9.99780273 12.87158203 C7.62299013 11.30464867 7.62299013 11.30464867 5.1328125 10.24804688 C2.3624107 8.62690516 1.90220197 7.12823237 0.9375 4.125 C0.5923251 2.75783668 0.26765612 1.3844282 0 0 Z " fill="#BF3C2B" transform="translate(62,20)"/>
<path d="M0 0 C2.1385485 2.1385485 2.42655063 3.13275314 3 6 C3.99 6 4.98 6 6 6 C6.66 7.65 7.32 9.3 8 11 C6.68 11 5.36 11 4 11 C3.731875 11.639375 3.46375 12.27875 3.1875 12.9375 C2 15 2 15 -1 16 C-1.12375 16.804375 -1.2475 17.60875 -1.375 18.4375 C-1.58125 19.283125 -1.7875 20.12875 -2 21 C-2.66 21.33 -3.32 21.66 -4 22 C-4.66 20.02 -5.32 18.04 -6 16 C-10.23196371 23.4403827 -10.75952547 30.54732018 -11 39 C-14.89723138 33.97835732 -17.77562327 28.741639 -17.55859375 22.1796875 C-16.57769785 18.35213568 -14.20672359 15.48629329 -11.82421875 12.39453125 C-10.01465153 10.0192321 -8.49165476 7.58400501 -7 5 C-5.68 5.33 -4.36 5.66 -3 6 C-3 5.34 -3 4.68 -3 4 C-2.34 3.67 -1.68 3.34 -1 3 C-0.67 2.01 -0.34 1.02 0 0 Z " fill="#D8581B" transform="translate(62,28)"/>
<path d="M0 0 C0.33 2.31 0.66 4.62 1 7 C-0.65 7.66 -2.3 8.32 -4 9 C-3.97381592 9.6705542 -3.94763184 10.3411084 -3.9206543 11.03198242 C-3.81642762 14.08358128 -3.75159377 17.13480542 -3.6875 20.1875 C-3.6246582 21.77014648 -3.6246582 21.77014648 -3.56054688 23.38476562 C-3.43559064 31.30699104 -3.43559064 31.30699104 -6.46875 35.03125 C-7.72171875 36.00578125 -7.72171875 36.00578125 -9 37 C-9.87989974 40.18150892 -9.87989974 40.18150892 -10 43 C-10.33 43 -10.66 43 -11 43 C-11.24799934 37.84085074 -11.42898392 32.68519212 -11.54931641 27.52148438 C-11.59948251 25.76728891 -11.6676401 24.01350916 -11.75439453 22.26074219 C-12.45949599 7.64440374 -12.45949599 7.64440374 -8.76464844 3.48144531 C-3.01954733 0 -3.01954733 0 0 0 Z " fill="#D76E34" transform="translate(29,25)"/>
<path d="M0 0 C0.28051758 2.79003906 0.28051758 2.79003906 0 6 C-1.88012695 7.84277344 -1.88012695 7.84277344 -4.48828125 9.359375 C-5.88916992 10.19662109 -5.88916992 10.19662109 -7.31835938 11.05078125 C-8.30642578 11.61152344 -9.29449219 12.17226562 -10.3125 12.75 C-11.28896484 13.32621094 -12.26542969 13.90242188 -13.27148438 14.49609375 C-15.08558381 15.56585135 -16.90516397 16.6264046 -18.73168945 17.67480469 C-20.52475661 18.72235269 -22.27212848 19.84808565 -24 21 C-26.1875 20.625 -26.1875 20.625 -28 20 C-28.33 18.68 -28.66 17.36 -29 16 C-25.25825009 12.83825669 -21.32643793 10.31961387 -17.0625 7.9375 C-16.17014648 7.42993164 -16.17014648 7.42993164 -15.25976562 6.91210938 C-3.0265353 0 -3.0265353 0 0 0 Z " fill="#862331" transform="translate(81,63)"/>
<path d="M0 0 C1.98 0 3.96 0 6 0 C5.93039063 0.67804687 5.86078125 1.35609375 5.7890625 2.0546875 C5.37835154 9.11500445 6.67953504 12.94423549 10.58984375 18.77734375 C12.34371313 21.54175283 13 23.72440088 13 27 C12.0625 29.375 12.0625 29.375 11 31 C10.67 28.69 10.34 26.38 10 24 C9.67 25.65 9.34 27.3 9 29 C1.80127957 20.25869662 -1.88547016 13.44933504 -1 2 C-0.67 1.34 -0.34 0.68 0 0 Z " fill="#972736" transform="translate(37,46)"/>
<path d="M0 0 C1.67253909 0.65179385 3.33734946 1.32337943 5 2 C5.89285202 2.34730667 5.89285202 2.34730667 6.80374146 2.70162964 C11.690219 4.70459551 16.50453774 6.9341826 20 11 C22.38668241 16.99774113 21.41142041 23.77396368 20.9375 30.0625 C20.86215986 31.80374843 20.79373555 33.54531063 20.73242188 35.28710938 C20.56799375 39.53255334 20.30999255 43.76279925 20 48 C19.67 48 19.34 48 19 48 C19 36.45 19 24.9 19 13 C18.01 13 17.02 13 16 13 C15.34 14.32 14.68 15.64 14 17 C13.45730469 16.59007813 12.91460937 16.18015625 12.35546875 15.7578125 C11.64003906 15.21898437 10.92460938 14.68015625 10.1875 14.125 C9.47980469 13.59132813 8.77210937 13.05765625 8.04296875 12.5078125 C6.39543703 11.29185219 4.70375789 10.13583859 3 9 C2.05078125 6.8359375 2.05078125 6.8359375 1.3125 4.375 C1.06113281 3.55773437 0.80976562 2.74046875 0.55078125 1.8984375 C0.36902344 1.27195312 0.18726563 0.64546875 0 0 Z " fill="#C85930" transform="translate(62,20)"/>
<path d="M0 0 C0.99 0.495 0.99 0.495 2 1 C2 1.99 2 2.98 2 4 C2.721875 4.2475 3.44375 4.495 4.1875 4.75 C7.40655919 6.18069297 9.50151314 7.49969982 12 10 C12.56762695 13.20800781 12.56762695 13.20800781 12.48828125 16.953125 C12.47766914 17.94345734 12.47766914 17.94345734 12.46684265 18.95379639 C12.43894727 21.05370492 12.37623287 23.15090379 12.3125 25.25 C12.28741017 26.6770447 12.26459817 28.10413138 12.24414062 29.53125 C12.1891412 33.02170748 12.10290912 36.51058911 12 40 C11.67 40 11.34 40 11 40 C11 37.36 11 34.72 11 32 C10.01 31.67 9.02 31.34 8 31 C8.04640625 30.0821875 8.0928125 29.164375 8.140625 28.21875 C8.36535218 20.5780258 8.15109395 15.4860843 4 9 C3.34 9.66 2.68 10.32 2 11 C0.57741188 7.17679443 -0.24042276 4.08718695 0 0 Z " fill="#C7BFB1" transform="translate(63,25)"/>
<path d="M0 0 C-0.04125 1.19625 -0.0825 2.3925 -0.125 3.625 C0.22753882 6.87298061 0.71349834 7.76669882 3.29296875 9.8671875 C5.8204074 11.35727121 8.35452084 12.7324746 11 14 C10.01 14.33 9.02 14.66 8 15 C7.34 14.67 6.68 14.34 6 14 C5.67 15.32 5.34 16.64 5 18 C3.35296694 17.18993474 1.70740494 16.3768779 0.0625 15.5625 C-0.85402344 15.11003906 -1.77054688 14.65757813 -2.71484375 14.19140625 C-5 13 -5 13 -6 12 C-6.07179964 10.48071962 -6.08392007 8.95832518 -6.0625 7.4375 C-6.05347656 6.61121094 -6.04445313 5.78492188 -6.03515625 4.93359375 C-6.02355469 4.29550781 -6.01195313 3.65742187 -6 3 C-5.01 3 -4.02 3 -3 3 C-3 2.34 -3 1.68 -3 1 C-1 0 -1 0 0 0 Z " fill="#A6353F" transform="translate(25,57)"/>
<path d="M0 0 C0.90425047 2.4727343 1.14783226 3.61915593 0.1796875 6.11328125 C-2.67106057 10.91858413 -5.54037424 15.60534025 -9 20 C-9.66 20 -10.32 20 -11 20 C-11.05429959 18.25034642 -11.09292823 16.50020213 -11.125 14.75 C-11.15980469 13.28820312 -11.15980469 13.28820312 -11.1953125 11.796875 C-10.99464023 8.92324816 -10.59570669 7.3750053 -9 5 C-5.76967782 3.07555275 -3.78176921 2 0 2 C0 1.34 0 0.68 0 0 Z " fill="#972333" transform="translate(63,55)"/>
<path d="M0 0 C0.99 0 1.98 0 3 0 C3.03738281 0.89460938 3.07476562 1.78921875 3.11328125 2.7109375 C3.52187317 10.22582427 4.4068917 16.92195595 7 24 C2.57935469 20.68451601 -1.20460382 17.40682527 -3 12 C-3.30497561 8.63543037 -3.24386243 5.36665627 -3 2 C-2.01 2 -1.02 2 0 2 C0 1.34 0 0.68 0 0 Z " fill="#BA4E49" transform="translate(31,44)"/>
<path d="M0 0 C0.33 0 0.66 0 1 0 C1.13572155 2.39774745 1.23436868 4.78775245 1.3125 7.1875 C1.35439453 7.86103516 1.39628906 8.53457031 1.43945312 9.22851562 C1.53929382 13.32198414 1.15925343 14.81111803 -1.51953125 17.98828125 C-2.74736328 18.98408203 -2.74736328 18.98408203 -4 20 C-5.53266582 16.93466836 -5.10276471 13.73245728 -5.0625 10.375 C-5.05798828 9.66859375 -5.05347656 8.9621875 -5.04882812 8.234375 C-5.03703875 6.48954725 -5.01910324 4.744763 -5 3 C-3.68 3 -2.36 3 -1 3 C-0.67 2.01 -0.34 1.02 0 0 Z " fill="#C14431" transform="translate(24,42)"/>
<path d="M0 0 C2 2 2 2 3 4 C3.99 5.485 3.99 5.485 5 7 C5 7.66 5 8.32 5 9 C5.66 9.33 6.32 9.66 7 10 C7.72693904 11.97888961 8.39816251 13.97954558 9 16 C6.56644121 17.53224072 5.34278436 18.03344238 2.4375 17.75 C0 17 0 17 -3 15 C-2.690625 14.4225 -2.38125 13.845 -2.0625 13.25 C0.05304264 8.77002735 0.09523181 4.95205419 0 0 Z " fill="#921D30" transform="translate(46,69)"/>
<path d="M0 0 C0.33 0 0.66 0 1 0 C2.73076327 7.13939848 2.26734154 12.33474731 -1 18.9375 C-1.556875 20.08089844 -2.11375 21.22429688 -2.6875 22.40234375 C-3.120625 23.25957031 -3.55375 24.11679688 -4 25 C-4.33 25 -4.66 25 -5 25 C-5.63267044 15.36935 -4.82081463 8.4364256 0 0 Z " fill="#CBC4B5" transform="translate(56,42)"/>
<path d="M0 0 C0 3.78238119 -1.14103538 4.87510466 -3.375 7.875 C-6.81232421 12.50053505 -9.03691277 16.52964221 -9.625 22.3125 C-9.74875 23.529375 -9.8725 24.74625 -10 26 C-10.33 26 -10.66 26 -11 26 C-12.37737169 8.82536531 -12.37737169 8.82536531 -9.06640625 4.4375 C-6.74151276 2.94956817 -4.60581107 1.89368972 -2 1 C-1.34 0.67 -0.68 0.34 0 0 Z " fill="#D3CFBE" transform="translate(37,27)"/>
<path d="M0 0 C1.98 0 3.96 0 6 0 C5.98839844 0.75925781 5.97679687 1.51851562 5.96484375 2.30078125 C5.95582031 3.29464844 5.94679688 4.28851563 5.9375 5.3125 C5.92589844 6.29863281 5.91429687 7.28476562 5.90234375 8.30078125 C5.87670138 11.09963849 5.87670138 11.09963849 7 14 C6.01 14.33 5.02 14.66 4 15 C1.875 13.5625 1.875 13.5625 0 12 C-0.33 12 -0.66 12 -1 12 C-1.02698189 10.37509046 -1.04638757 8.75005367 -1.0625 7.125 C-1.07410156 6.22007813 -1.08570313 5.31515625 -1.09765625 4.3828125 C-1 2 -1 2 0 0 Z " fill="#B93729" transform="translate(37,46)"/>
<path d="M0 0 C0.66 0.33 1.32 0.66 2 1 C0.1875 3 0.1875 3 -2 5 C-2.99 5 -3.98 5 -5 5 C-5.33 5.99 -5.66 6.98 -6 8 C-6.66 8 -7.32 8 -8 8 C-8.33 8.99 -8.66 9.98 -9 11 C-11.5 12.5 -11.5 12.5 -14 14 C-14.33 14.99 -14.66 15.98 -15 17 C-15.99 16.67 -16.98 16.34 -18 16 C-18.6875 13.9375 -18.6875 13.9375 -19 12 C-15.1521704 8.75316474 -11.16526157 6.17544209 -6.8125 3.6875 C-6.18408203 3.31560547 -5.55566406 2.94371094 -4.90820312 2.56054688 C-3.30802143 1.64151204 -1.65675589 0.81262931 0 0 Z " fill="#3C0E1A" transform="translate(71,67)"/>
<path d="M0 0 C0.33 0 0.66 0 1 0 C1.05383848 2.45862401 1.09359038 4.9160755 1.125 7.375 C1.14175781 8.07367188 1.15851563 8.77234375 1.17578125 9.4921875 C1.19344267 11.32897486 1.10303261 13.16601963 1 15 C0.34 15.66 -0.32 16.32 -1 17 C-2.32 17 -3.64 17 -5 17 C-5.08107583 15.06318839 -5.13922475 13.1254066 -5.1875 11.1875 C-5.22230469 10.10855469 -5.25710937 9.02960937 -5.29296875 7.91796875 C-5 5 -5 5 -3.61328125 3.11328125 C-2 2 -2 2 0 2 C0 1.34 0 0.68 0 0 Z " fill="#A4242B" transform="translate(80,48)"/>
<path d="M0 0 C-0.90732584 4.53662919 -2.13308124 9.65815214 -6 12.4375 C-8 13 -8 13 -11 13 C-10.54617044 8.12133225 -9.3639156 5.56179299 -6 2 C-3 0 -3 0 0 0 Z " fill="#DE6619" transform="translate(39,33)"/>
<path d="M0 0 C2.59085456 3.88628185 2.66204298 5.36569912 2 10 C0.36762029 12.61692204 -1.44581914 15.03092403 -3.30859375 17.48828125 C-5.63998558 20.9503712 -6.31917231 23.91503383 -7 28 C-7.33 28 -7.66 28 -8 28 C-9.07682149 20.12040148 -7.13749291 15.96732865 -2.625 9.5625 C-0.51007365 6.22742383 -0.08656689 3.89551018 0 0 Z " fill="#D4CBB8" transform="translate(51,28)"/>
<path d="M0 0 C0.33 0 0.66 0 1 0 C1.33 3.63 1.66 7.26 2 11 C2.33 11 2.66 11 3 11 C3.33 14.96 3.66 18.92 4 23 C3.34 23 2.68 23 2 23 C1.67 25.64 1.34 28.28 1 31 C0.67 31 0.34 31 0 31 C0 20.77 0 10.54 0 0 Z " fill="#CEBDAE" transform="translate(25,34)"/>
<path d="M0 0 C0 3.23534093 -0.22545994 4.35357609 -2 7 C-4.6015625 8.703125 -4.6015625 8.703125 -7.625 10.25 C-8.62789062 10.77078125 -9.63078125 11.2915625 -10.6640625 11.828125 C-11.43492188 12.21484375 -12.20578125 12.6015625 -13 13 C-12.64453125 11.08984375 -12.64453125 11.08984375 -12 9 C-10.34928604 7.97388051 -8.68029994 6.97691857 -7 6 C-5.65705519 4.34106818 -4.32255312 2.67523395 -3 1 C-2.01 0.67 -1.02 0.34 0 0 Z " fill="#5D1123" transform="translate(69,71)"/>
<path d="M0 0 C1 3 1 3 0.14453125 5.19140625 C-0.29503906 5.97386719 -0.73460938 6.75632812 -1.1875 7.5625 C-1.61417969 8.34753906 -2.04085937 9.13257813 -2.48046875 9.94140625 C-4.13944723 12.18891694 -5.43198244 12.98269112 -8 14 C-7.43746937 11.84861957 -6.84932179 9.70392286 -6.25 7.5625 C-5.92515625 6.36753906 -5.6003125 5.17257813 -5.265625 3.94140625 C-4 1 -4 1 -1.859375 0.08984375 C-1.24578125 0.06019531 -0.6321875 0.03054687 0 0 Z " fill="#9A282C" transform="translate(70,53)"/>
<path d="M0 0 C0.33 1.32 0.66 2.64 1 4 C2.65 3.34 4.3 2.68 6 2 C6.25 7.625 6.25 7.625 4 11 C2.68 11 1.36 11 0 11 C0 7.37 0 3.74 0 0 Z " fill="#D65C25" transform="translate(19,34)"/>
<path d="M0 0 C0.99 0 1.98 0 3 0 C2.67 3.96 2.34 7.92 2 12 C1.67 11.01 1.34 10.02 1 9 C-1.01508358 8.26676204 -1.01508358 8.26676204 -3 8 C-3 6.02 -3 4.04 -3 2 C-2.01 2 -1.02 2 0 2 C0 1.34 0 0.68 0 0 Z " fill="#CB4229" transform="translate(31,44)"/>
<path d="M0 0 C0.66 0 1.32 0 2 0 C2 2.31 2 4.62 2 7 C1.34 6.34 0.68 5.68 0 5 C-1.11375 5.66 -2.2275 6.32 -3.375 7 C-6.75 9 -6.75 9 -9 9 C-8.34 7.02 -7.68 5.04 -7 3 C-5.5459375 2.814375 -5.5459375 2.814375 -4.0625 2.625 C-2.5465625 2.315625 -2.5465625 2.315625 -1 2 C-0.67 1.34 -0.34 0.68 0 0 Z " fill="#B33A36" transform="translate(64,51)"/>
<path d="M0 0 C0.6875 1.6875 0.6875 1.6875 1 4 C-0.4375 6.75 -0.4375 6.75 -2 9 C-2.5775 8.62875 -3.155 8.2575 -3.75 7.875 C-6 6.70833333 -6 6.70833333 -8.25 7.875 C-9.11625 8.431875 -9.11625 8.431875 -10 9 C-9.875 7.1875 -9.875 7.1875 -9 5 C-5.79116175 3.04679411 -3.7794561 2 0 2 C0 1.34 0 0.68 0 0 Z " fill="#A62A32" transform="translate(63,55)"/>
<path d="M0 0 C0.33 0 0.66 0 1 0 C1 9.9 1 19.8 1 30 C0.67 30 0.34 30 0 30 C0 27.36 0 24.72 0 22 C-0.99 21.67 -1.98 21.34 -3 21 C-2.505 19.515 -2.505 19.515 -2 18 C-1.67 18.33 -1.34 18.66 -1 19 C-0.67 12.73 -0.34 6.46 0 0 Z " fill="#C2AB9F" transform="translate(74,35)"/>
<path d="M0 0 C0.33 0 0.66 0 1 0 C1 3.63 1 7.26 1 11 C0.34 10.01 -0.32 9.02 -1 8 C-1.99 8.33 -2.98 8.66 -4 9 C-4 7.02 -4 5.04 -4 3 C-3.01 3 -2.02 3 -1 3 C-0.67 2.01 -0.34 1.02 0 0 Z " fill="#CC5131" transform="translate(24,42)"/>
<path d="M0 0 C3.60654039 2.40436026 3.85452932 3.94679607 5 8 C3.02 8.66 1.04 9.32 -1 10 C-0.67 6.7 -0.34 3.4 0 0 Z " fill="#7C1A2E" transform="translate(50,77)"/>
<path d="M0 0 C0.33 0 0.66 0 1 0 C1 2.64 1 5.28 1 8 C1.66 8 2.32 8 3 8 C3 7.34 3 6.68 3 6 C4.65 6.33 6.3 6.66 8 7 C3.375 11 3.375 11 0 11 C-1.05404945 7.01803543 -0.84098656 4.01804691 0 0 Z " fill="#BBA59D" transform="translate(51,67)"/>
<path d="M0 0 C4.48148494 2.18018186 6.21849541 4.34829356 8 9 C7.67 9.66 7.34 10.32 7 11 C5.82439821 9.73742767 4.65977135 8.46462916 3.5 7.1875 C2.8503125 6.47980469 2.200625 5.77210937 1.53125 5.04296875 C0 3 0 3 0 0 Z " fill="#A8303A" transform="translate(30,57)"/>
<path d="M0 0 C0 2.64 0 5.28 0 8 C-1.65 8 -3.3 8 -5 8 C-5.33 6.35 -5.66 4.7 -6 3 C-5.01 3 -4.02 3 -3 3 C-3 2.34 -3 1.68 -3 1 C-1 0 -1 0 0 0 Z " fill="#B5393B" transform="translate(25,57)"/>
<path d="M0 0 C1.98 0 3.96 0 6 0 C6 0.99 6 1.98 6 3 C5.34 3 4.68 3 4 3 C4 4.98 4 6.96 4 9 C3.67 9 3.34 9 3 9 C3 7.02 3 5.04 3 3 C2.34 3 1.68 3 1 3 C0.67 3.99 0.34 4.98 0 6 C-1.125 2.25 -1.125 2.25 0 0 Z " fill="#C64426" transform="translate(37,46)"/>
<path d="M0 0 C0.99 0.495 0.99 0.495 2 1 C2 1.99 2 2.98 2 4 C4.475 4.99 4.475 4.99 7 6 C6.01 6.66 5.02 7.32 4 8 C3.01 9.485 3.01 9.485 2 11 C0.57741188 7.17679443 -0.24042276 4.08718695 0 0 Z " fill="#CDB197" transform="translate(63,25)"/>
<path d="M0 0 C0.33 0 0.66 0 1 0 C1 2.31 1 4.62 1 7 C-0.98 7.33 -2.96 7.66 -5 8 C-4.67 6.68 -4.34 5.36 -4 4 C-2.68 3.67 -1.36 3.34 0 3 C0 2.01 0 1.02 0 0 Z " fill="#BB3425" transform="translate(71,46)"/>
<path d="M0 0 C2.46324069 3.69486103 2.38991688 5.63293092 2 10 C0.5 11.9375 0.5 11.9375 -1 13 C-2.07310858 9.72814447 -1.89263102 7.57052408 -1.0625 4.25 C-0.86785156 3.45078125 -0.67320313 2.6515625 -0.47265625 1.828125 C-0.31667969 1.22484375 -0.16070312 0.6215625 0 0 Z " fill="#D3B497" transform="translate(51,28)"/>
<path d="M0 0 C1.98 0 3.96 0 6 0 C5.67 1.98 5.34 3.96 5 6 C3.02 5.01 1.04 4.02 -1 3 C-0.67 2.01 -0.34 1.02 0 0 Z " fill="#872135" transform="translate(44,81)"/>
<path d="M0 0 C0.66 0.33 1.32 0.66 2 1 C2 3.64 2 6.28 2 9 C-0.89932357 6.60490662 -1.50168276 4.68754757 -2 1 C-1.34 0.67 -0.68 0.34 0 0 Z " fill="#D54B0F" transform="translate(48,55)"/>
<path d="M0 0 C0.33 0 0.66 0 1 0 C1.98248524 4.0527516 2.08159574 7.83861737 2 12 C1.01 12.495 1.01 12.495 0 13 C-0.19466332 11.20909747 -0.38051213 9.41723495 -0.5625 7.625 C-0.66691406 6.62726562 -0.77132812 5.62953125 -0.87890625 4.6015625 C-1 2 -1 2 0 0 Z " fill="#CCB8A6" transform="translate(56,42)"/>
<path d="M0 0 C1.98 0.66 3.96 1.32 6 2 C5.67 2.99 5.34 3.98 5 5 C3.35 4.67 1.7 4.34 0 4 C-0.33 4.66 -0.66 5.32 -1 6 C-0.67 4.02 -0.34 2.04 0 0 Z " fill="#D55F27" transform="translate(37,42)"/>
<path d="M0 0 C4.875 1.75 4.875 1.75 6 4 C5.0625 6.625 5.0625 6.625 4 9 C2.00902154 6.01353231 1.05875074 3.40312738 0 0 Z " fill="#D66E2A" transform="translate(62,20)"/>
<path d="M0 0 C1.45606519 4.52092968 0.27032841 7.51648796 -1 12 C-1.99 11.67 -2.98 11.34 -4 11 C-2.7874262 7.27566618 -1.49140021 3.62197194 0 0 Z " fill="#C2B4AB" transform="translate(64,56)"/>
<path d="M0 0 C2.17854707 3.2678206 3.49760034 6.38058265 5 10 C4.01 10.33 3.02 10.66 2 11 C1.47007308 9.54494642 0.9513211 8.08581873 0.4375 6.625 C0.14746094 5.81289063 -0.14257812 5.00078125 -0.44140625 4.1640625 C-1 2 -1 2 0 0 Z " fill="#C3B2AA" transform="translate(36,58)"/>
<path d="M0 0 C2.475 0.99 2.475 0.99 5 2 C5 2.66 5 3.32 5 4 C4.34 4 3.68 4 3 4 C2.34 5.32 1.68 6.64 1 8 C0 7 0 7 -0.0625 3.4375 C-0.041875 2.303125 -0.02125 1.16875 0 0 Z " fill="#B32F2D" transform="translate(75,46)"/>
<path d="M0 0 C0.33 0 0.66 0 1 0 C1.25 7.625 1.25 7.625 -1 11 C-1.66 11 -2.32 11 -3 11 C-2.01 7.37 -1.02 3.74 0 0 Z " fill="#D7C1A3" transform="translate(48,16)"/>
<path d="M0 0 C2.31 0.33 4.62 0.66 7 1 C7.33 1.99 7.66 2.98 8 4 C7.01 4.33 6.02 4.66 5 5 C2.61438008 3.52652887 1.26132231 2.52264461 0 0 Z " fill="#AB3437" transform="translate(36,56)"/>
<path d="M0 0 C-1 3 -1 3 -4.0625 4.6875 C-5.031875 5.120625 -6.00125 5.55375 -7 6 C-6.6875 4.125 -6.6875 4.125 -6 2 C-3 0 -3 0 0 0 Z " fill="#6A1D2C" transform="translate(63,78)"/>
<path d="M0 0 C0.66 0.33 1.32 0.66 2 1 C2 1.66 2 2.32 2 3 C-0.64738916 4.4606285 -1.89448334 5 -5 5 C-4.67 3.68 -4.34 2.36 -4 1 C-3.34 1 -2.68 1 -2 1 C-1.34 0.67 -0.68 0.34 0 0 Z " fill="#D85D28" transform="translate(33,41)"/>
<path d="M0 0 C0 1.98 0 3.96 0 6 C-0.99 5.67 -1.98 5.34 -3 5 C-3 4.34 -3 3.68 -3 3 C-4.32 2.67 -5.64 2.34 -7 2 C-1.125 0 -1.125 0 0 0 Z " fill="#952230" transform="translate(81,63)"/>
<path d="M0 0 C0.66 1.32 1.32 2.64 2 4 C1.01 5.32 0.02 6.64 -1 8 C-1.66 7.67 -2.32 7.34 -3 7 C-2.01 4.69 -1.02 2.38 0 0 Z " fill="#8C313D" transform="translate(65,59)"/>
<path d="M0 0 C0.66 0.33 1.32 0.66 2 1 C-0.52788007 3.79872437 -2.20411134 5.45773019 -6 6 C-5 3 -5 3 -2.5625 1.25 C-1.716875 0.8375 -0.87125 0.425 0 0 Z " fill="#240C11" transform="translate(71,67)"/>
</svg>
